<?xml version="1.0" encoding="iso-8859-1"?>
<!-- Generator: Adobe Illustrator 16.0.0, SVG Export Plug-In . SVG Version: 6.00 Build 0)  -->
<!DOCTYPE svg PUBLIC "-//W3C//DTD SVG 1.1//EN" "http://www.w3.org/Graphics/SVG/1.1/DTD/svg11.dtd">
<svg xmlns="http://www.w3.org/2000/svg" xmlns:xlink="http://www.w3.org/1999/xlink" version="1.1" id="Capa_1" x="0px" y="0px" width="512px" height="512px" viewBox="0 0 47.238 47.238" style="enable-background:new 0 0 47.238 47.238;" xml:space="preserve">
<g>
	<g>
		<path d="M27.079,16.591c-0.271,0-0.521,0.146-0.652,0.385l-6.926,12.579c-0.126,0.228-0.122,0.506,0.011,0.729    c0.132,0.225,0.374,0.362,0.634,0.362c0.269,0,0.516-0.146,0.646-0.381l6.938-12.572c0.127-0.229,0.123-0.511-0.012-0.737    C27.586,16.73,27.342,16.591,27.079,16.591z" fill="#fcb51c"/>
		<path d="M22.469,20.509c0-2.305-1.307-4.005-3.631-4.005c-2.306,0-3.777,1.827-3.777,4.229c0,2.534,1.619,4.067,3.672,4.067    C20.683,24.801,22.469,23.328,22.469,20.509z M18.796,23.081c-0.914,0-1.389-1.018-1.389-2.428c0-1.35,0.435-2.427,1.369-2.427    c0.975,0,1.347,1.058,1.347,2.427C20.123,22.168,19.688,23.081,18.796,23.081z" fill="#fcb51c"/>
		<path d="M28.548,22.105c-2.304,0-3.777,1.827-3.777,4.232c0.021,2.531,1.64,4.067,3.672,4.067c1.951,0,3.733-1.474,3.733-4.296    C32.177,23.805,30.872,22.105,28.548,22.105z M28.506,28.68c-0.912,0-1.391-1.015-1.369-2.425c0-1.35,0.412-2.43,1.369-2.43    c0.973,0,1.329,1.06,1.329,2.43C29.835,27.771,29.396,28.68,28.506,28.68z" fill="#fcb51c"/>
		<path d="M43.832,17.051c-0.732-2.265,0.268-5.433-1.104-7.316c-1.384-1.901-4.718-1.923-6.619-3.308    c-1.885-1.371-2.926-4.542-5.189-5.276c-2.184-0.709-4.88,1.222-7.301,1.222c-2.42,0-5.117-1.931-7.301-1.222    c-2.263,0.734-3.305,3.905-5.189,5.276C9.226,7.812,5.894,7.833,4.51,9.734c-1.371,1.884-0.371,5.052-1.104,7.316    C2.696,19.233,0,21.197,0,23.618s2.696,4.386,3.406,6.568c0.733,2.263-0.268,5.432,1.104,7.316    c1.384,1.901,4.717,1.923,6.62,3.307c1.883,1.372,2.926,4.543,5.188,5.278c2.184,0.708,4.88-1.223,7.301-1.223    c2.421,0,5.117,1.931,7.301,1.223c2.264-0.735,3.305-3.906,5.189-5.277c1.901-1.384,5.234-1.406,6.619-3.308    c1.371-1.884,0.371-5.053,1.104-7.315c0.71-2.184,3.406-4.148,3.406-6.569C47.238,21.198,44.542,19.234,43.832,17.051z     M23.619,40.263c-9.192,0-16.644-7.452-16.644-16.645c0-9.191,7.452-16.644,16.644-16.644c9.193,0,16.644,7.452,16.644,16.644    C40.263,32.811,32.812,40.263,23.619,40.263z" fill="#fcb51c"/>
		<path d="M23.619,9.098c-8.007,0-14.521,6.514-14.521,14.521c0,8.009,6.514,14.521,14.521,14.521    c8.007,0,14.521-6.513,14.521-14.521C38.141,15.612,31.626,9.098,23.619,9.098z M23.619,35.77c-6.7,0-12.15-5.451-12.15-12.15    c0-6.698,5.451-12.148,12.15-12.148s12.15,5.45,12.15,12.148C35.77,30.319,30.318,35.77,23.619,35.77z" fill="#fcb51c"/>
	</g>
</g>
<g>
</g>
<g>
</g>
<g>
</g>
<g>
</g>
<g>
</g>
<g>
</g>
<g>
</g>
<g>
</g>
<g>
</g>
<g>
</g>
<g>
</g>
<g>
</g>
<g>
</g>
<g>
</g>
<g>
</g>
</svg>
